<svg width="201" height="49" viewBox="0 0 201 49" fill="none" xmlns="http://www.w3.org/2000/svg">
<path d="M17.0026 16.5127C18.1696 16.0913 19.3689 15.7509 20.6006 15.4916C37.2396 10.6958 45.7615 32.1547 30.0873 39.2289C20.0636 43.7529 17.0026 44.633 17.0026 44.633C15.2539 41.6167 16.6646 36.5872 19.8284 35.122L26.8285 32.3067C29.6438 31.0132 29.913 27.6793 28.6658 25.2984C27.5256 23.1216 24.9033 22.1937 22.5951 23.0371C20.7459 23.7127 18.6142 24.4116 17.0026 24.7077C13.4471 25.3611 11.6177 19.6114 14.4925 17.6513C15.4649 17.1002 15.8033 16.9341 17.0026 16.5127Z" fill="url(#paint0_linear_261_261)"/>
<path d="M24.3602 32.1204C23.1933 32.5417 21.994 32.8821 20.7622 33.1414C4.12321 37.9372 -4.3987 16.4783 11.2755 9.40411C21.2992 4.88014 24.3602 4 24.3602 4C26.109 7.01636 24.6983 12.0459 21.5344 13.511L14.5343 16.3263C11.7191 17.6198 11.4499 20.9538 12.697 23.3347C13.8373 25.5115 16.4596 26.4393 18.7677 25.596C20.6169 24.9203 22.7486 24.2215 24.3602 23.9253C27.9158 23.272 29.7452 29.0216 26.8704 30.9818C25.8979 31.5328 25.5595 31.699 24.3602 32.1204Z" fill="url(#paint1_linear_261_261)"/>
<path d="M17.0026 44.633C17.4172 46.0746 17.4175 46.0745 17.4179 46.0744L17.4187 46.0742L17.4205 46.0737L17.4249 46.0724L17.4372 46.0688L17.4753 46.0573C17.507 46.0477 17.5512 46.034 17.6091 46.0156C17.7247 45.9788 17.8949 45.9229 18.1272 45.8427C18.5916 45.6823 19.3057 45.4241 20.3302 45.0253C22.3785 44.2281 25.6745 42.8662 30.7044 40.5961C34.9446 38.6824 37.653 35.7388 38.9546 32.407C40.2491 29.0934 40.1098 25.5033 38.8549 22.3538C36.7188 16.9927 31.3476 12.8942 24.2545 13.3313C25.1934 12.3177 25.8542 11.0455 26.2297 9.7568C26.841 7.65868 26.7904 5.20104 25.6579 3.24766L25.0707 2.23492L23.9457 2.55841L24.3602 4C23.9457 2.55841 23.9453 2.55851 23.945 2.55862L23.9442 2.55885L23.9424 2.55937L23.9379 2.56066L23.9257 2.56425L23.8875 2.5757C23.8559 2.58531 23.8116 2.599 23.7538 2.61743C23.6381 2.65428 23.4679 2.71017 23.2356 2.79039C22.7713 2.95076 22.0571 3.20898 21.0327 3.60772C18.9844 4.40496 15.6883 5.7668 10.6585 8.03691C6.41828 9.95062 3.70985 12.8942 2.40823 16.2261C1.11377 19.5396 1.25304 23.1298 2.50795 26.2792C4.64409 31.6403 10.0152 35.7389 17.1083 35.3018C16.1694 36.3154 15.5087 37.5875 15.1332 38.8762C14.5219 40.9744 14.5725 43.432 15.705 45.3854L16.2921 46.3981L17.4172 46.0746L17.0026 44.633Z" stroke="url(#paint2_linear_261_261)" stroke-opacity="0.4" stroke-width="3"/>
<path d="M51.7384 32.6422C50.4795 32.6422 49.3678 32.4296 48.4032 32.0046C47.4386 31.5631 46.6784 30.9419 46.1225 30.1408C45.5666 29.3233 45.2805 28.3342 45.2642 27.1734H48.5748C48.6075 27.9745 48.8936 28.653 49.4332 29.2089C49.989 29.7484 50.7492 30.0182 51.7138 30.0182C52.5476 30.0182 53.2098 29.822 53.7002 29.4296C54.1907 29.0209 54.4359 28.4814 54.4359 27.8111C54.4359 27.1081 54.2152 26.5604 53.7738 26.168C53.3487 25.7756 52.7765 25.4568 52.0572 25.2116C51.3378 24.9663 50.5694 24.7048 49.752 24.4268C48.4277 23.969 47.4141 23.3805 46.7111 22.6611C46.0244 21.9418 45.6811 20.9854 45.6811 19.7919C45.6647 18.7782 45.9018 17.9117 46.3922 17.1924C46.8991 16.4567 47.5857 15.8926 48.4522 15.5003C49.3187 15.0916 50.316 14.8872 51.4441 14.8872C52.5885 14.8872 53.594 15.0916 54.4605 15.5003C55.3433 15.909 56.03 16.4812 56.5204 17.2169C57.0273 17.9526 57.297 18.8273 57.3297 19.8409H53.97C53.9536 19.236 53.7166 18.7047 53.2588 18.2469C52.8174 17.7728 52.1961 17.5357 51.395 17.5357C50.7084 17.5194 50.128 17.691 49.6539 18.0507C49.1961 18.394 48.9672 18.9009 48.9672 19.5712C48.9672 20.1434 49.147 20.6012 49.5067 20.9445C49.8664 21.2715 50.3569 21.5494 50.9781 21.7783C51.5994 22.0072 52.3106 22.2524 53.1117 22.514C53.9618 22.8083 54.7384 23.1516 55.4414 23.544C56.1444 23.9363 56.7085 24.4595 57.1335 25.1135C57.5586 25.7511 57.7711 26.5767 57.7711 27.5903C57.7711 28.4895 57.5423 29.3233 57.0845 30.0917C56.6267 30.8601 55.9482 31.4814 55.049 31.9555C54.1498 32.4133 53.0463 32.6422 51.7384 32.6422ZM62.8151 32.3479L59.2592 20.1843H62.3737L64.4827 28.9391L66.9351 20.1843H70.4174L72.8697 28.9391L75.0033 20.1843H78.1178L74.5373 32.3479H71.2757L68.6762 23.2497L66.0767 32.3479H62.8151ZM81.7903 18.296C81.2181 18.296 80.744 18.1243 80.368 17.781C80.0083 17.4376 79.8285 17.0044 79.8285 16.4812C79.8285 15.958 80.0083 15.533 80.368 15.206C80.744 14.8627 81.2181 14.691 81.7903 14.691C82.3626 14.691 82.8285 14.8627 83.1882 15.206C83.5642 15.533 83.7522 15.958 83.7522 16.4812C83.7522 17.0044 83.5642 17.4376 83.1882 17.781C82.8285 18.1243 82.3626 18.296 81.7903 18.296ZM80.2208 32.3479V20.1843H83.3598V32.3479H80.2208ZM92.0559 32.3479C90.7807 32.3479 89.7589 32.0373 88.9905 31.416C88.2221 30.7947 87.8379 29.6912 87.8379 28.1053V22.8083H85.7534V20.1843H87.8379L88.2057 16.9226H90.9769V20.1843H94.263V22.8083H90.9769V28.1299C90.9769 28.7184 91.0995 29.1272 91.3447 29.356C91.6063 29.5686 92.0477 29.6748 92.669 29.6748H94.1894V32.3479H92.0559ZM102.606 32.6422C101.363 32.6422 100.268 32.3724 99.3198 31.8329C98.3716 31.2934 97.6195 30.5413 97.0637 29.5767C96.5242 28.6122 96.2544 27.5086 96.2544 26.2661C96.2544 25.0236 96.5242 23.92 97.0637 22.9554C97.6195 21.9908 98.3716 21.2388 99.3198 20.6993C100.268 20.1597 101.363 19.89 102.606 19.89C104.159 19.89 105.467 20.2987 106.53 21.1161C107.592 21.9172 108.271 23.029 108.565 24.4513H105.255C105.091 23.8628 104.764 23.405 104.274 23.078C103.799 22.7347 103.235 22.563 102.581 22.563C101.715 22.563 100.979 22.89 100.374 23.544C99.7694 24.1979 99.467 25.1053 99.467 26.2661C99.467 27.4269 99.7694 28.3342 100.374 28.9882C100.979 29.6421 101.715 29.9691 102.581 29.9691C103.235 29.9691 103.799 29.8056 104.274 29.4787C104.764 29.1517 105.091 28.6857 105.255 28.0808H108.565C108.271 29.4541 107.592 30.5577 106.53 31.3915C105.467 32.2253 104.159 32.6422 102.606 32.6422ZM111.351 32.3479V14.691H114.49V22.048C114.899 21.3777 115.447 20.8546 116.133 20.4785C116.836 20.0862 117.637 19.89 118.537 19.89C120.041 19.89 121.202 20.3641 122.019 21.3123C122.853 22.2606 123.27 23.6502 123.27 25.4813V32.3479H120.155V25.7756C120.155 24.7293 119.943 23.9282 119.518 23.3723C119.109 22.8164 118.455 22.5385 117.556 22.5385C116.673 22.5385 115.937 22.8491 115.349 23.4704C114.776 24.0917 114.49 24.9582 114.49 26.0699V32.3479H111.351ZM129.827 32.3479L125.29 15.1815H128.65L131.74 28.841L135.37 15.1815H138.827L142.359 28.841L145.449 15.1815H148.833L144.173 32.3479H140.446L137.037 19.6202L133.53 32.3479H129.827ZM153.839 32.6422C152.792 32.6422 151.934 32.4787 151.264 32.1517C150.593 31.8084 150.095 31.3588 149.768 30.8029C149.441 30.2471 149.277 29.634 149.277 28.9637C149.277 27.8356 149.719 26.92 150.602 26.217C151.485 25.514 152.809 25.1625 154.574 25.1625H157.664V24.8682C157.664 24.0344 157.427 23.4214 156.953 23.029C156.479 22.6366 155.891 22.4404 155.188 22.4404C154.55 22.4404 153.994 22.5957 153.52 22.9064C153.046 23.2006 152.752 23.6421 152.637 24.2306H149.572C149.653 23.3478 149.948 22.5794 150.455 21.9254C150.978 21.2715 151.648 20.7728 152.465 20.4295C153.283 20.0698 154.198 19.89 155.212 19.89C156.945 19.89 158.31 20.3232 159.308 21.1897C160.305 22.0562 160.803 23.2824 160.803 24.8682V32.3479H158.13L157.836 30.386C157.476 31.04 156.97 31.5795 156.316 32.0046C155.678 32.4296 154.852 32.6422 153.839 32.6422ZM154.55 30.1898C155.449 30.1898 156.144 29.8956 156.634 29.307C157.141 28.7184 157.46 27.9909 157.591 27.1244H154.918C154.084 27.1244 153.487 27.2797 153.128 27.5903C152.768 27.8846 152.588 28.2525 152.588 28.6939C152.588 29.168 152.768 29.5359 153.128 29.7975C153.487 30.059 153.961 30.1898 154.55 30.1898ZM163.799 32.3479V14.691H166.938V32.3479H163.799ZM170.145 32.3479V14.691H173.284V32.3479H170.145ZM182.402 32.6422C181.176 32.6422 180.089 32.3806 179.14 31.8574C178.192 31.3343 177.448 30.5986 176.909 29.6503C176.369 28.7021 176.099 27.6067 176.099 26.3642C176.099 25.1053 176.361 23.9854 176.884 23.0045C177.424 22.0235 178.159 21.2633 179.091 20.7238C180.039 20.1679 181.151 19.89 182.426 19.89C183.62 19.89 184.674 20.1516 185.59 20.6747C186.505 21.1979 187.217 21.9172 187.723 22.8328C188.247 23.732 188.508 24.7374 188.508 25.8492C188.508 26.029 188.5 26.217 188.484 26.4132C188.484 26.6094 188.476 26.8138 188.459 27.0263H179.214C179.279 27.9745 179.606 28.7184 180.195 29.2579C180.8 29.7975 181.527 30.0672 182.377 30.0672C183.015 30.0672 183.546 29.9283 183.971 29.6503C184.413 29.356 184.74 28.98 184.952 28.5222H188.14C187.912 29.2906 187.527 29.9936 186.988 30.6313C186.465 31.2525 185.811 31.743 185.026 32.1027C184.258 32.4623 183.383 32.6422 182.402 32.6422ZM182.426 22.4404C181.658 22.4404 180.98 22.6611 180.391 23.1026C179.802 23.5276 179.426 24.1816 179.263 25.0644H185.32C185.271 24.2633 184.977 23.6257 184.437 23.1516C183.898 22.6775 183.228 22.4404 182.426 22.4404ZM196.353 32.3479C195.077 32.3479 194.055 32.0373 193.287 31.416C192.519 30.7947 192.134 29.6912 192.134 28.1053V22.8083H190.05V20.1843H192.134L192.502 16.9226H195.273V20.1843H198.56V22.8083H195.273V28.1299C195.273 28.7184 195.396 29.1272 195.641 29.356C195.903 29.5686 196.344 29.6748 196.966 29.6748H198.486V32.3479H196.353Z" fill="#757575"/>
<defs>
<linearGradient id="paint0_linear_261_261" x1="-0.0518543" y1="4.01939" x2="31.3874" y2="38.4767" gradientUnits="userSpaceOnUse">
<stop stop-color="#FF6600"/>
<stop offset="1" stop-color="#2042B8"/>
</linearGradient>
<linearGradient id="paint1_linear_261_261" x1="-0.0518543" y1="4.01939" x2="31.3874" y2="38.4767" gradientUnits="userSpaceOnUse">
<stop stop-color="#FF6600"/>
<stop offset="1" stop-color="#2042B8"/>
</linearGradient>
<linearGradient id="paint2_linear_261_261" x1="-0.0518543" y1="4.01939" x2="31.3874" y2="38.4767" gradientUnits="userSpaceOnUse">
<stop stop-color="#FF6600"/>
<stop offset="1" stop-color="#2042B8"/>
</linearGradient>
</defs>
</svg>
