<svg width="79" height="32" viewBox="0 0 79 32" fill="none" xmlns="http://www.w3.org/2000/svg">
<path d="M25.8992 17.5923H31.9458V18.9239H27.4532V21.7733H31.3806V23.1192H27.4532V27.1428H25.8992V17.5923Z" fill="#323030"/>
<path d="M33.6218 17.4487H35.2042V18.809H33.6218V17.4487ZM33.6642 19.9974H35.1476L35.1616 27.1424H33.6642V19.9974Z" fill="#323030"/>
<path d="M37.2915 20.5409C37.7153 20.3214 38.2286 20.1448 38.8313 20.0111C39.4436 19.868 40.0275 19.7964 40.5834 19.7964C41.5722 19.7964 42.3023 20.0064 42.7729 20.4264C43.2439 20.8464 43.4795 21.5003 43.4795 22.388V27.1418H41.996V22.5885C41.996 21.5862 41.4355 21.085 40.3149 21.085C39.7782 21.085 39.2646 21.1757 38.7751 21.3571V27.1418H37.2915V20.5409Z" fill="#323030"/>
<path d="M48.6359 19.7964C49.4083 19.7964 50.0628 19.9873 50.5995 20.3691C51.146 20.7414 51.4145 21.3476 51.4051 22.1876V25.624C51.4051 26.2731 51.1222 26.7266 50.5572 26.9843C49.9922 27.2325 49.1869 27.3566 48.1415 27.3566C47.3034 27.3566 46.6111 27.18 46.0646 26.8268C45.5184 26.4736 45.2454 25.8818 45.2454 25.0513C45.2454 24.2686 45.4667 23.6815 45.9093 23.2901C46.3614 22.8988 46.9971 22.703 47.8167 22.703C48.6642 22.703 49.3705 22.8749 49.9355 23.2185V22.5312C49.9355 21.5576 49.3565 21.0707 48.1981 21.0707C47.7834 21.0707 47.3691 21.1376 46.9548 21.2712C46.5405 21.3953 46.1968 21.5719 45.9233 21.801V20.3978C46.1873 20.2259 46.5688 20.0828 47.0677 19.9682C47.5765 19.8537 48.0992 19.7964 48.6359 19.7964ZM48.3111 26.1825C48.9044 26.1825 49.3236 26.1395 49.5684 26.0536C49.8131 25.9677 49.9355 25.7959 49.9355 25.5381V24.1492C49.4555 23.9392 48.9278 23.8342 48.3534 23.8342C47.8167 23.8342 47.4069 23.9297 47.1244 24.1206C46.8513 24.3115 46.7146 24.5979 46.7146 24.9797C46.7146 25.3806 46.8698 25.6813 47.1807 25.8818C47.5009 26.0822 47.8778 26.1825 48.3111 26.1825Z" fill="#323030"/>
<path d="M53.5039 20.5409C53.9277 20.3214 54.441 20.1448 55.0438 20.0111C55.656 19.868 56.2399 19.7964 56.7955 19.7964C57.7846 19.7964 58.5143 20.0064 58.9853 20.4264C59.4563 20.8464 59.6916 21.5003 59.6916 22.388V27.1418H58.2084V22.5885C58.2084 21.5862 57.6479 21.085 56.527 21.085C55.9902 21.085 55.477 21.1757 54.9871 21.3571V27.1418H53.5039V20.5409Z" fill="#323030"/>
<path d="M64.9021 27.285C63.9038 27.285 63.0703 26.9939 62.4017 26.4116C61.7423 25.8293 61.4126 24.889 61.4126 23.5908C61.4126 22.2544 61.7378 21.2903 62.3874 20.6984C63.0468 20.0971 63.8804 19.7964 64.8881 19.7964C65.651 19.7964 66.3762 19.9396 67.0636 20.2259V21.5719C66.3479 21.2664 65.6933 21.1137 65.1 21.1137C64.3559 21.1137 63.8003 21.3046 63.4329 21.6864C63.0657 22.0587 62.8818 22.6553 62.8818 23.4762C62.8818 24.3354 63.0608 24.9654 63.4189 25.3663C63.7766 25.7577 64.351 25.9534 65.1423 25.9534C65.7828 25.9534 66.4279 25.7959 67.0779 25.4809V26.8268C66.3996 27.1323 65.6744 27.285 64.9021 27.285Z" fill="#323030"/>
<path d="M71.7142 19.7832C72.8163 19.7832 73.6215 20.1459 74.1302 20.8714C74.6481 21.5873 74.9026 22.5944 74.8932 23.8926H69.9201C69.9673 24.599 70.1698 25.1383 70.5275 25.5106C70.895 25.8734 71.4128 26.0547 72.0817 26.0547C72.5149 26.0547 72.9292 26.0022 73.325 25.8972C73.7204 25.7827 74.069 25.6395 74.3704 25.4677V26.8709C73.6358 27.1954 72.7928 27.3577 71.8414 27.3577C70.7771 27.3577 69.939 27.0332 69.3268 26.3841C68.724 25.7254 68.4226 24.7947 68.4226 23.5919C68.4226 22.3605 68.71 21.4203 69.2845 20.7712C69.859 20.1125 70.6687 19.7832 71.7142 19.7832ZM71.6719 21.0146C71.1729 21.0146 70.782 21.1482 70.4995 21.4155C70.2166 21.6828 70.0331 22.1362 69.9485 22.7758H73.3813C73.3156 22.1648 73.146 21.721 72.8729 21.4442C72.5998 21.1578 72.1995 21.0146 71.6719 21.0146Z" fill="#323030"/>
<path d="M18.9653 4.39404C20.4037 4.39404 21.5697 5.57588 21.5697 7.03371V24.9835C21.5697 26.4413 20.4037 27.6231 18.9653 27.6231C17.5269 27.6231 16.3608 26.4413 16.3608 24.9835V7.03371C16.3608 5.57588 17.5269 4.39404 18.9653 4.39404Z" fill="url(#paint0_linear_1162_62)"/>
<path d="M11.9074 11.7861C13.2163 11.7861 14.2773 12.8615 14.2773 14.188V20.5931C14.2773 21.9196 13.2163 22.995 11.9074 22.995C10.5986 22.995 9.5376 21.9196 9.5376 20.5931V14.188C9.5376 12.8615 10.5986 11.7861 11.9074 11.7861Z" fill="url(#paint1_linear_1162_62)"/>
<path d="M8.02681 11.02C8.02681 9.69351 6.96577 8.61816 5.65694 8.61816C4.34811 8.61816 3.28711 9.69351 3.28711 11.02V11.8207C3.28711 13.1472 4.34811 14.2226 5.65694 14.2226C6.96577 14.2226 8.02681 13.1472 8.02681 11.8207V11.02Z" fill="url(#paint2_linear_1162_62)"/>
<path d="M11.9074 5.4502C13.2163 5.4502 14.2773 6.52554 14.2773 7.85207V8.65271C14.2773 9.97924 13.2163 11.0546 11.9074 11.0546C10.5986 11.0546 9.5376 9.97924 9.5376 8.65271V7.85207C9.5376 6.52554 10.5986 5.4502 11.9074 5.4502Z" fill="url(#paint3_linear_1162_62)"/>
<path d="M31.7355 13.3569L29.8265 10.5217L28.1295 13.3569H25.8095L28.7393 8.89587L25.7034 4.39453H28.3681L30.2905 7.24313L31.9344 4.39453H34.3075L31.4041 8.89587L34.4003 13.3569H31.7355Z" fill="url(#paint4_linear_1162_62)"/>
<path d="M35.4827 4.39404H41.5413V6.07364H37.6305V8.02199H41.0246V9.71501H37.6305V11.6768H41.5413V13.3564H35.4827V4.39404Z" fill="url(#paint5_linear_1162_62)"/>
<path d="M51.0574 4.39404V13.3564H49.44L45.317 7.90104V13.3564H43.3418V4.39404H45.1712L49.0823 9.72844V4.39404H51.0574Z" fill="url(#paint6_linear_1162_62)"/>
<path d="M52.9343 4.39404H56.4871C57.972 4.39404 59.0724 4.77028 59.7884 5.52273C60.5042 6.26624 60.8622 7.38596 60.8622 8.88195C60.8622 10.3689 60.5042 11.4887 59.7884 12.2411C59.0724 12.9846 57.972 13.3564 56.4871 13.3564H52.9343V4.39404ZM56.2353 11.6768C57.0395 11.6768 57.6451 11.4484 58.0514 10.9915C58.458 10.5346 58.6615 9.83146 58.6615 8.88195C58.6615 7.91447 58.458 7.20682 58.0514 6.75892C57.6451 6.30207 57.0395 6.07364 56.2353 6.07364H55.0819V11.6768H56.2353Z" fill="url(#paint7_linear_1162_62)"/>
<defs>
<linearGradient id="paint0_linear_1162_62" x1="23.2066" y1="20.6457" x2="3.11932" y2="7.22197" gradientUnits="userSpaceOnUse">
<stop stop-color="#2042B8"/>
<stop offset="0.933726" stop-color="#FF6600"/>
</linearGradient>
<linearGradient id="paint1_linear_1162_62" x1="23.2067" y1="20.6467" x2="3.11936" y2="7.22294" gradientUnits="userSpaceOnUse">
<stop stop-color="#2042B8"/>
<stop offset="0.933726" stop-color="#FF6600"/>
</linearGradient>
<linearGradient id="paint2_linear_1162_62" x1="23.207" y1="20.6463" x2="3.11967" y2="7.22258" gradientUnits="userSpaceOnUse">
<stop stop-color="#2042B8"/>
<stop offset="0.933726" stop-color="#FF6600"/>
</linearGradient>
<linearGradient id="paint3_linear_1162_62" x1="23.2067" y1="20.6459" x2="3.11935" y2="7.22223" gradientUnits="userSpaceOnUse">
<stop stop-color="#2042B8"/>
<stop offset="0.933726" stop-color="#FF6600"/>
</linearGradient>
<linearGradient id="paint4_linear_1162_62" x1="38.89" y1="4.41197" x2="74.2038" y2="40.8801" gradientUnits="userSpaceOnUse">
<stop stop-color="#2042B8"/>
<stop offset="0.54856" stop-color="#FF6600"/>
</linearGradient>
<linearGradient id="paint5_linear_1162_62" x1="38.8893" y1="4.41148" x2="74.203" y2="40.8796" gradientUnits="userSpaceOnUse">
<stop stop-color="#2042B8"/>
<stop offset="0.54856" stop-color="#FF6600"/>
</linearGradient>
<linearGradient id="paint6_linear_1162_62" x1="38.8894" y1="4.41148" x2="74.2032" y2="40.8797" gradientUnits="userSpaceOnUse">
<stop stop-color="#2042B8"/>
<stop offset="0.54856" stop-color="#FF6600"/>
</linearGradient>
<linearGradient id="paint7_linear_1162_62" x1="38.8883" y1="4.41148" x2="74.2021" y2="40.8797" gradientUnits="userSpaceOnUse">
<stop stop-color="#2042B8"/>
<stop offset="0.54856" stop-color="#FF6600"/>
</linearGradient>
</defs>
</svg>
