<svg width="130" height="32" viewBox="0 0 130 32" fill="none" xmlns="http://www.w3.org/2000/svg">
<path fill-rule="evenodd" clip-rule="evenodd" d="M25.6076 22.7692C26.0438 22.3331 25.9415 21.6022 25.4158 21.2796C24.3128 20.6027 23.3251 19.8835 22.3947 19.0156C21.4198 18.1061 20.5361 17.06 19.6517 15.7741C19.2444 15.182 18.34 15.2093 17.956 15.8167C17.295 16.8618 16.5627 17.7934 15.6794 18.662C14.7192 19.6063 13.6089 20.4484 12.2714 21.2758C11.7486 21.5993 11.6487 22.3278 12.0835 22.7625L17.3139 27.9929C18.1616 28.8407 19.5361 28.8407 20.3839 27.9929L25.6076 22.7692Z" fill="white"/>
<path fill-rule="evenodd" clip-rule="evenodd" d="M20.3874 4.56698C19.5396 3.71921 18.1651 3.71921 17.3173 4.56698L7.18808 14.6962C6.3403 15.544 6.3403 16.9185 7.18808 17.7663L8.95103 19.5292C9.07885 19.6571 9.2825 19.6597 9.44095 19.5727C11.3429 18.5286 12.6708 17.5878 13.7145 16.5615C14.7508 15.5423 15.5583 14.3881 16.3603 12.8564C17.3601 10.947 20.1278 10.8079 21.2701 12.691C22.4112 14.5721 23.418 15.847 24.5052 16.8613C25.5931 17.8762 26.815 18.6804 28.4523 19.5695C28.6145 19.6576 28.8226 19.655 28.9532 19.5245L30.614 17.8637C31.4618 17.0159 31.4618 15.6414 30.614 14.7936L20.3874 4.56698Z" fill="#4C9AFF"/>
<path d="M79.3589 20.8792H84.8948C87.5145 20.8792 88.8491 19.8247 88.8491 17.9465C88.8491 16.6284 88.0253 15.6234 86.3612 15.3927V15.3762C87.844 15.1456 88.569 14.1735 88.569 12.9378C88.569 11.043 87.3333 10.0215 84.6477 10.005H79.3589V20.8792ZM82.0939 14.4536V12.081H84.1369C85.1584 12.081 85.6692 12.4764 85.6692 13.2673C85.6692 14.0581 85.1584 14.4536 84.1369 14.4536H82.0939ZM82.0939 18.8856V16.4801H84.417C85.4385 16.4801 85.9493 16.9085 85.9493 17.6664C85.9493 18.4572 85.4385 18.8856 84.417 18.8856H82.0939Z" fill="#4C9AFF"/>
<path d="M95.5152 12.4764C94.23 12.4764 93.4227 13.1849 93.0108 14.4041L92.8955 12.6412H90.4241V20.8792H93.225V16.7272C93.225 15.4256 94.0817 14.7831 95.0703 14.7831C95.4987 14.7831 95.8941 14.8984 96.1083 15.0302L96.4049 12.6577C96.2236 12.5588 95.9271 12.4764 95.5152 12.4764Z" fill="#4C9AFF"/>
<path d="M98.9041 11.6856C100.041 11.6856 100.535 11.2737 100.535 10.351C100.535 9.4119 100.041 9 98.9041 9C97.7672 9 97.2729 9.4119 97.2729 10.351C97.2729 11.2737 97.7672 11.6856 98.9041 11.6856ZM100.305 12.6412H97.5036V20.8792H100.305V12.6412Z" fill="#4C9AFF"/>
<path d="M107.851 9.14828V14.0417C107.406 13.1025 106.549 12.4764 105.346 12.4764C103.238 12.4764 101.952 14.0581 101.952 16.7932C101.952 19.4787 103.205 21.044 105.346 21.044C106.615 21.044 107.554 20.352 108.016 19.314L108.131 20.8792H110.652V9.14828H107.851ZM106.319 18.9845C105.363 18.9845 104.77 18.3089 104.77 16.7602C104.77 15.2115 105.363 14.5359 106.319 14.5359C107.291 14.5359 107.834 15.3103 107.834 16.6778L107.851 16.6449V16.8591L107.834 16.8426C107.834 18.2595 107.258 18.9845 106.319 18.9845Z" fill="#4C9AFF"/>
<path d="M117.867 19.0504H115.05C114.506 19.0504 114.193 18.8527 114.193 18.4902C114.193 18.1936 114.341 18.0124 114.72 17.9135C115.181 18.0124 115.709 18.0618 116.302 18.0618C118.856 18.0618 120.322 17.0568 120.322 15.2774C120.322 14.2558 119.844 13.4815 118.938 13.0037C119.185 12.4929 119.828 12.1469 120.866 12.2952L120.553 10.4334C118.938 10.3016 118.164 11.3725 117.949 12.6412C117.472 12.5423 116.911 12.4764 116.302 12.4764C113.748 12.4764 112.282 13.498 112.282 15.2774C112.282 16.2989 112.743 17.0568 113.616 17.5346C112.825 17.8147 112.282 18.4243 112.282 19.2151C112.282 20.0719 112.825 20.6156 113.534 20.9286C112.463 21.1758 112.018 21.8019 112.018 22.4774C112.018 23.6636 113.254 24.4215 116.236 24.4215C119.02 24.4215 120.866 23.433 120.866 21.5218C120.866 19.8742 119.762 19.0504 117.867 19.0504ZM116.302 14.0746C117.027 14.0746 117.521 14.5524 117.521 15.2774C117.521 16.0023 117.027 16.4636 116.302 16.4636C115.577 16.4636 115.083 16.0023 115.083 15.2774C115.083 14.5524 115.577 14.0746 116.302 14.0746ZM116.434 22.6092C114.835 22.6092 114.143 22.3291 114.143 21.8513C114.143 21.4559 114.489 21.2746 115.396 21.2746H117.653C118.411 21.2746 118.658 21.4723 118.658 21.8019C118.658 22.2632 117.949 22.6092 116.434 22.6092Z" fill="#4C9AFF"/>
<path d="M130 16.6449C130 14.0417 128.567 12.4764 125.881 12.4764C123.13 12.4764 121.581 14.0417 121.581 16.7602C121.581 19.4787 123.146 21.044 126.029 21.044C127.941 21.044 129.341 20.319 129.819 18.8856L127.545 18.1607C127.364 18.7373 126.853 19.0668 126.029 19.0668C125.09 19.0668 124.481 18.6385 124.299 17.5675H129.918C129.967 17.3533 130 16.925 130 16.6449ZM125.865 14.4371C126.738 14.4371 127.249 14.9973 127.397 16.0517H124.299C124.448 14.9314 124.975 14.4371 125.865 14.4371Z" fill="#4C9AFF"/>
<path d="M48.6105 20.8789L44.9034 15.3265L48.3799 10.0047H45.3153L43.4371 13.4647L41.5588 10.0047H38.2142L41.6906 15.4088L38 20.8789H41.2128L43.1899 17.3036L45.233 20.8789H48.6105Z" fill="white"/>
<path d="M57.0325 16.6445C57.0325 14.0413 55.5991 12.4761 52.9135 12.4761C50.162 12.4761 48.6133 14.0413 48.6133 16.7599C48.6133 19.4784 50.1785 21.0436 53.0618 21.0436C54.973 21.0436 56.3734 20.3187 56.8513 18.8853L54.5776 18.1603C54.3963 18.737 53.8856 19.0665 53.0618 19.0665C52.1226 19.0665 51.513 18.6381 51.3318 17.5672H56.9501C56.9995 17.353 57.0325 16.9246 57.0325 16.6445ZM52.897 14.4367C53.7702 14.4367 54.281 14.9969 54.4293 16.0514H51.3318C51.4801 14.931 52.0073 14.4367 52.897 14.4367Z" fill="white"/>
<path d="M64.0024 12.4761C62.7008 12.4761 61.6957 13.0692 61.185 14.239L61.1026 12.6409H58.5982V20.8789H61.3991V16.5292C61.3991 15.1617 62.0747 14.618 62.882 14.618C63.574 14.618 64.0518 14.9969 64.0518 16.1667V20.8789H66.8527V15.3924C66.8527 13.4811 65.6994 12.4761 64.0024 12.4761Z" fill="white"/>
<path d="M74.3677 9.14795V14.0413C73.9228 13.1022 73.0661 12.4761 71.8633 12.4761C69.7544 12.4761 68.4693 14.0578 68.4693 16.7928C68.4693 19.4784 69.7215 21.0436 71.8633 21.0436C73.132 21.0436 74.0711 20.3516 74.5325 19.3136L74.6478 20.8789H77.1686V9.14795H74.3677ZM72.8354 18.9841C71.8798 18.9841 71.2867 18.3086 71.2867 16.7599C71.2867 15.2111 71.8798 14.5356 72.8354 14.5356C73.8075 14.5356 74.3512 15.31 74.3512 16.6775L74.3677 16.6445V16.8587L74.3512 16.8422C74.3512 18.2592 73.7746 18.9841 72.8354 18.9841Z" fill="white"/>
</svg>
